<svg width="99" height="14" viewBox="0 0 99 14" fill="none" xmlns="http://www.w3.org/2000/svg">
<path d="M11.602 9.706V13H1.504V10.39L6.058 6.178C6.454 5.806 6.718 5.488 6.85 5.224C6.982 4.96 7.048 4.702 7.048 4.45C7.048 4.138 6.94 3.898 6.724 3.73C6.52 3.55 6.22 3.46 5.824 3.46C5.44 3.46 5.08 3.562 4.744 3.766C4.408 3.97 4.15 4.258 3.97 4.63L0.766 3.028C1.246 2.128 1.948 1.42 2.872 0.903999C3.796 0.375999 4.912 0.112 6.22 0.112C7.216 0.112 8.098 0.274 8.866 0.598C9.634 0.921999 10.234 1.384 10.666 1.984C11.098 2.584 11.314 3.274 11.314 4.054C11.314 4.75 11.164 5.404 10.864 6.016C10.576 6.616 10.006 7.3 9.154 8.068L7.354 9.706H11.602ZM18.6638 0.112C19.8758 0.112 20.9318 0.345999 21.8318 0.813999C22.7438 1.282 23.4518 1.978 23.9558 2.902C24.4598 3.826 24.7118 4.96 24.7118 6.304C24.7118 7.744 24.4178 8.992 23.8298 10.048C23.2538 11.104 22.4378 11.908 21.3818 12.46C20.3378 13.012 19.1198 13.288 17.7278 13.288C16.9718 13.288 16.2518 13.198 15.5678 13.018C14.8838 12.85 14.3018 12.61 13.8218 12.298L15.3518 9.328C15.9758 9.772 16.7378 9.994 17.6378 9.994C18.3698 9.994 18.9698 9.814 19.4378 9.454C19.9178 9.082 20.2298 8.548 20.3738 7.852C19.7138 8.32 18.8798 8.554 17.8718 8.554C17.1038 8.554 16.3898 8.386 15.7298 8.05C15.0698 7.714 14.5418 7.24 14.1458 6.628C13.7498 6.016 13.5518 5.314 13.5518 4.522C13.5518 3.646 13.7738 2.872 14.2178 2.2C14.6738 1.528 15.2918 1.012 16.0718 0.651999C16.8518 0.291999 17.7158 0.112 18.6638 0.112ZM18.9518 5.62C19.3358 5.62 19.6478 5.506 19.8878 5.278C20.1278 5.038 20.2478 4.72 20.2478 4.324C20.2478 3.928 20.1278 3.616 19.8878 3.388C19.6478 3.16 19.3358 3.046 18.9518 3.046C18.5678 3.046 18.2558 3.16 18.0158 3.388C17.7758 3.616 17.6558 3.928 17.6558 4.324C17.6558 4.72 17.7758 5.038 18.0158 5.278C18.2558 5.506 18.5678 5.62 18.9518 5.62Z" fill="#3B7CFF"/>
<path d="M36.2328 10.804H31.4448L30.5988 13H26.2788L31.7868 0.399999H35.9628L41.4708 13H37.0788L36.2328 10.804ZM35.0628 7.744L33.8388 4.576L32.6148 7.744H35.0628ZM43.5334 0.399999H49.7434C51.1474 0.399999 52.3834 0.657999 53.4514 1.174C54.5314 1.678 55.3654 2.404 55.9534 3.352C56.5534 4.3 56.8534 5.416 56.8534 6.7C56.8534 7.984 56.5534 9.1 55.9534 10.048C55.3654 10.996 54.5314 11.728 53.4514 12.244C52.3834 12.748 51.1474 13 49.7434 13H43.5334V0.399999ZM49.5634 9.688C50.4754 9.688 51.2014 9.43 51.7414 8.914C52.2934 8.386 52.5694 7.648 52.5694 6.7C52.5694 5.752 52.2934 5.02 51.7414 4.504C51.2014 3.976 50.4754 3.712 49.5634 3.712H47.7814V9.688H49.5634ZM71.0391 13L71.0031 7.258L68.2671 11.866H66.3951L63.6591 7.456V13H59.7891V0.399999H63.2811L67.3851 7.114L71.3811 0.399999H74.8731L74.9091 13H71.0391ZM78.3475 0.399999H82.5955V13H78.3475V0.399999ZM98.4451 0.399999V13H94.9531L90.1651 7.276V13H86.0251V0.399999H89.5171L94.3051 6.124V0.399999H98.4451Z" fill="#3B4859"/>
</svg>
