<svg width="24" height="26" viewBox="0 0 24 26" fill="none" xmlns="http://www.w3.org/2000/svg">
<path id="Actions" fill-rule="evenodd" clip-rule="evenodd" d="M9.03435 16.7668V3.89682C9.03435 2.60322 9.85995 1.38762 11.1175 1.08042C12.1267 0.834418 13.0747 1.17402 13.7275 1.81002C14.2207 2.30322 14.5231 2.98962 14.5231 3.74442V9.46842C14.5231 10.024 14.8579 10.5244 15.3715 10.7368L21.4723 13.2592C22.7239 13.7776 23.4103 15.1312 23.0899 16.4464L21.2563 23.9536C21.1063 24.5668 20.5555 25 19.9231 25H10.0831C9.71955 25 9.37035 24.8548 9.11235 24.598L1.89795 17.3836C0.84315 16.3288 0.66435 14.5948 1.64715 13.4728C2.19315 12.8488 2.93715 12.5536 3.69675 12.5536C4.39635 12.5536 5.09595 12.8152 5.63115 13.3636L9.03435 16.7668Z" stroke="#3B7CFF" stroke-linecap="round" stroke-linejoin="round"/>
</svg>
