<svg width="24" height="24" viewBox="0 0 24 24" fill="none" xmlns="http://www.w3.org/2000/svg">
<g id="Icon">
<path id="Stroke 1" fill-rule="evenodd" clip-rule="evenodd" d="M23.5 13.5205V10.4785C23.5 9.93851 23.062 9.49951 22.521 9.49951H20.125C19.967 8.98551 19.759 8.49251 19.511 8.02451L21.207 6.32851C21.59 5.94551 21.59 5.32651 21.207 4.94351L19.057 2.79251C18.674 2.41051 18.054 2.41051 17.672 2.79251L15.976 4.48951C15.508 4.24051 15.015 4.03351 14.5 3.87451V1.47851C14.5 0.938512 14.062 0.499512 13.521 0.499512H10.479C9.938 0.499512 9.5 0.938512 9.5 1.47851V3.87451C8.985 4.03351 8.493 4.24051 8.024 4.48951L6.328 2.79251C5.946 2.41051 5.326 2.41051 4.943 2.79251L2.793 4.94351C2.41 5.32651 2.41 5.94551 2.793 6.32851L4.489 8.02451C4.241 8.49251 4.033 8.98551 3.875 9.49951H1.479C0.938 9.49951 0.5 9.93851 0.5 10.4785V13.5205C0.5 14.0615 0.938 14.4995 1.479 14.4995H3.875C4.033 15.0145 4.241 15.5065 4.489 15.9755L2.793 17.6715C2.41 18.0535 2.41 18.6735 2.793 19.0565L4.943 21.2075C5.326 21.5895 5.946 21.5895 6.328 21.2075L8.024 19.5105C8.493 19.7585 8.985 19.9665 9.5 20.1245V22.5205C9.5 23.0615 9.938 23.4995 10.479 23.4995H13.521C14.062 23.4995 14.5 23.0615 14.5 22.5205V20.1245C15.015 19.9665 15.508 19.7585 15.976 19.5105L17.672 21.2075C18.054 21.5895 18.674 21.5895 19.057 21.2075L21.207 19.0565C21.59 18.6735 21.59 18.0535 21.207 17.6715L19.511 15.9755C19.759 15.5065 19.967 15.0145 20.125 14.4995H22.521C23.062 14.4995 23.5 14.0615 23.5 13.5205Z" stroke="#39475B" stroke-linecap="round" stroke-linejoin="round"/>
<path id="Stroke 3" fill-rule="evenodd" clip-rule="evenodd" d="M18.5 12C18.5 15.59 15.59 18.5 12 18.5C8.41 18.5 5.5 15.59 5.5 12C5.5 8.41 8.41 5.5 12 5.5C15.59 5.5 18.5 8.41 18.5 12Z" stroke="#39475B" stroke-linecap="round" stroke-linejoin="round"/>
</g>
</svg>
