<svg width="18" height="24" viewBox="0 0 18 24" fill="none" xmlns="http://www.w3.org/2000/svg">
<g id="Icon">
<path id="Stroke 1" d="M17.0416 5.12501V21.625C17.0416 22.1319 16.6318 22.5417 16.1249 22.5417H2.37492C1.86892 22.5417 1.45825 22.1319 1.45825 21.625V3.29167" stroke="#39475B" stroke-linecap="round" stroke-linejoin="round"/>
<path id="Stroke 3" d="M17.0416 1.45833H3.29159C2.27959 1.45833 1.45825 2.27966 1.45825 3.29166C1.45825 4.30366 2.27959 5.12499 3.29159 5.12499H17.0416" stroke="#39475B" stroke-linecap="round" stroke-linejoin="round"/>
<path id="Stroke 5" d="M3.29156 3.29166H17.0416" stroke="#39475B" stroke-linecap="round" stroke-linejoin="round"/>
<path id="Stroke 7" fill-rule="evenodd" clip-rule="evenodd" d="M11.5416 11.0833C11.5416 12.3493 10.5158 13.375 9.24992 13.375C7.984 13.375 6.95825 12.3493 6.95825 11.0833C6.95825 9.81742 7.984 8.79167 9.24992 8.79167C10.5158 8.79167 11.5416 9.81742 11.5416 11.0833Z" stroke="#39475B" stroke-linecap="round" stroke-linejoin="round"/>
<path id="Stroke 9" fill-rule="evenodd" clip-rule="evenodd" d="M13.3749 18.875H5.12491V17.5C5.12491 15.2221 6.97199 13.375 9.24991 13.375C11.5278 13.375 13.3749 15.2221 13.3749 17.5V18.875Z" stroke="#39475B" stroke-linecap="round" stroke-linejoin="round"/>
</g>
</svg>
