<svg width="25" height="25" viewBox="0 0 25 25" fill="none" xmlns="http://www.w3.org/2000/svg">
<g id="Group">
<path id="Stroke 1" fill-rule="evenodd" clip-rule="evenodd" d="M9 11H3C1.896 11 1 10.104 1 9V3C1 1.896 1.896 1 3 1H9C10.104 1 11 1.896 11 3V9C11 10.104 10.104 11 9 11Z" stroke="#39475B" stroke-linecap="round" stroke-linejoin="round"/>
<path id="Stroke 1_2" fill-rule="evenodd" clip-rule="evenodd" d="M9 24H3C1.896 24 1 23.104 1 22V16C1 14.896 1.896 14 3 14H9C10.104 14 11 14.896 11 16V22C11 23.104 10.104 24 9 24Z" stroke="#39475B" stroke-linecap="round" stroke-linejoin="round"/>
<path id="Stroke 1_3" fill-rule="evenodd" clip-rule="evenodd" d="M22 11H16C14.896 11 14 10.104 14 9V3C14 1.896 14.896 1 16 1H22C23.104 1 24 1.896 24 3V9C24 10.104 23.104 11 22 11Z" stroke="#39475B" stroke-linecap="round" stroke-linejoin="round"/>
<path id="Stroke 1_4" fill-rule="evenodd" clip-rule="evenodd" d="M22 24H16C14.896 24 14 23.104 14 22V16C14 14.896 14.896 14 16 14H22C23.104 14 24 14.896 24 16V22C24 23.104 23.104 24 22 24Z" stroke="#39475B" stroke-linecap="round" stroke-linejoin="round"/>
</g>
</svg>
