<svg width="24" height="23" viewBox="0 0 24 23" fill="none" xmlns="http://www.w3.org/2000/svg">
<g id="Icon">
<path id="Stroke 1" d="M15.5 10.5H21.5" stroke="#39475B" stroke-linecap="round" stroke-linejoin="round"/>
<path id="Stroke 2" d="M15.5 13.5H21.5" stroke="#39475B" stroke-linecap="round" stroke-linejoin="round"/>
<path id="Stroke 3" d="M2.5 16.5H21.5" stroke="#39475B" stroke-linecap="round" stroke-linejoin="round"/>
<path id="Stroke 4" d="M2.5 19.5H19.5" stroke="#39475B" stroke-linecap="round" stroke-linejoin="round"/>
<g id="Group 9">
<path id="Stroke 5" d="M5.33 7.5H0.5V22.5H18.906C21.443 22.5 23.5 20.443 23.5 17.906V7.5H15.68" stroke="#39475B" stroke-linecap="round" stroke-linejoin="round"/>
<path id="Stroke 7" fill-rule="evenodd" clip-rule="evenodd" d="M8.01951 12.3271L4.49951 13.5001L5.67351 9.98012L10.1705 5.48312L14.6675 0.986122C14.9915 0.662122 15.4165 0.500122 15.8405 0.500122C16.2655 0.500122 16.6905 0.662122 17.0145 0.986122C17.3375 1.30912 17.4995 1.73412 17.4995 2.15912C17.4995 2.58412 17.3375 3.00912 17.0145 3.33212L12.5175 7.83012L8.01951 12.3271Z" stroke="#39475B" stroke-linecap="round" stroke-linejoin="round"/>
</g>
</g>
</svg>
