<svg width="24" height="24" viewBox="0 0 24 24" fill="none" xmlns="http://www.w3.org/2000/svg">
<g id="Icon">
<path id="Stroke 1" fill-rule="evenodd" clip-rule="evenodd" d="M23.5 12C23.5 18.351 18.351 23.5 12 23.5C5.649 23.5 0.5 18.351 0.5 12C0.5 5.649 5.649 0.5 12 0.5C18.351 0.5 23.5 5.649 23.5 12Z" stroke="#39475B" stroke-linecap="round" stroke-linejoin="round"/>
<path id="Stroke 3" fill-rule="evenodd" clip-rule="evenodd" d="M8.5 9C8.5 9.829 7.829 10.5 7 10.5C6.171 10.5 5.5 9.829 5.5 9C5.5 8.171 6.171 7.5 7 7.5C7.829 7.5 8.5 8.171 8.5 9Z" stroke="#39475B" stroke-linecap="round" stroke-linejoin="round"/>
<path id="Stroke 5" fill-rule="evenodd" clip-rule="evenodd" d="M18.5 9C18.5 9.829 17.829 10.5 17 10.5C16.171 10.5 15.5 9.829 15.5 9C15.5 8.171 16.171 7.5 17 7.5C17.829 7.5 18.5 8.171 18.5 9Z" stroke="#39475B" stroke-linecap="round" stroke-linejoin="round"/>
<path id="Stroke 7" fill-rule="evenodd" clip-rule="evenodd" d="M4.6499 13.5H19.3499C18.6499 16.92 15.6299 19.5 11.9999 19.5C8.3699 19.5 5.3499 16.92 4.6499 13.5Z" stroke="#39475B" stroke-linecap="round" stroke-linejoin="round"/>
</g>
</svg>
