<svg width="17" height="23" viewBox="0 0 17 23" fill="none" xmlns="http://www.w3.org/2000/svg">
<g id="Icon">
<path id="Stroke 1" fill-rule="evenodd" clip-rule="evenodd" d="M16.5 5.5V22.5H0.5V0.5H11.5L16.5 5.5Z" stroke="#39475B" stroke-linecap="round" stroke-linejoin="round"/>
<path id="Stroke 3" fill-rule="evenodd" clip-rule="evenodd" d="M16.5 5.5H11.5V0.5L16.5 5.5Z" stroke="#39475B" stroke-linecap="round" stroke-linejoin="round"/>
<path id="Stroke 5" fill-rule="evenodd" clip-rule="evenodd" d="M10.5 11.5C10.5 12.604 9.604 13.5 8.5 13.5C7.396 13.5 6.5 12.604 6.5 11.5C6.5 10.396 7.396 9.5 8.5 9.5C9.604 9.5 10.5 10.396 10.5 11.5Z" stroke="#39475B" stroke-linecap="round" stroke-linejoin="round"/>
<path id="Stroke 7" fill-rule="evenodd" clip-rule="evenodd" d="M8.5 13.5V13.5C6.843 13.5 5.5 14.843 5.5 16.5V18.5H11.5V16.5C11.5 14.843 10.157 13.5 8.5 13.5Z" stroke="#39475B" stroke-linecap="round" stroke-linejoin="round"/>
</g>
</svg>
