<svg width="24" height="18" viewBox="0 0 24 18" fill="none" xmlns="http://www.w3.org/2000/svg">
<g id="Icon">
<path id="Stroke 1" d="M11.3262 5.81838C11.2152 5.54438 11.0532 5.29738 10.8532 5.08938C10.6542 4.88238 10.4172 4.71438 10.1542 4.59738C9.89124 4.48138 9.60224 4.41638 9.30024 4.41638H8.90024H8.50024H8.09924H7.70024C7.39724 4.41638 7.10824 4.48138 6.84624 4.59738C6.58324 4.71438 6.34624 4.88238 6.14624 5.08938C5.94724 5.29738 5.78524 5.54438 5.67424 5.81838C5.56124 6.09238 5.50024 6.39338 5.50024 6.70838C5.50024 7.02338 5.56124 7.32438 5.67424 7.59838C5.78524 7.87238 5.94724 8.11938 6.14624 8.32638C6.34624 8.53438 6.58324 8.70238 6.84624 8.81938C7.10824 8.93538 7.39724 9.00038 7.70024 9.00038H8.09924H8.50024H8.90024H9.30024C9.60224 9.00038 9.89124 9.06438 10.1542 9.18038C10.4172 9.29738 10.6542 9.46538 10.8532 9.67338C11.0532 9.88038 11.2152 10.1284 11.3262 10.4024C11.4382 10.6754 11.5002 10.9764 11.5002 11.2924C11.5002 11.6064 11.4382 11.9074 11.3262 12.1814C11.2152 12.4554 11.0532 12.7024 10.8532 12.9104C10.6542 13.1184 10.4172 13.2864 10.1542 13.4024C9.89124 13.5184 9.60224 13.5834 9.30024 13.5834H8.90024H8.50024H8.09924H7.70024C7.39724 13.5834 7.10824 13.5184 6.84624 13.4024C6.58324 13.2864 6.34624 13.1184 6.14624 12.9104C5.94724 12.7024 5.78524 12.4554 5.67424 12.1814" stroke="#39475B" stroke-linecap="round" stroke-linejoin="round"/>
<path id="Stroke 3" d="M8.5 3.5V14.5" stroke="#39475B" stroke-linecap="round" stroke-linejoin="round"/>
<path id="Stroke 5" fill-rule="evenodd" clip-rule="evenodd" d="M17.5 9C17.5 13.694 13.694 17.5 9 17.5C4.306 17.5 0.5 13.694 0.5 9C0.5 4.306 4.306 0.5 9 0.5C13.694 0.5 17.5 4.306 17.5 9Z" stroke="#39475B" stroke-linecap="round" stroke-linejoin="round"/>
<path id="Stroke 7" d="M12 0.5C16.694 0.5 20.5 4.306 20.5 9C20.5 13.694 16.694 17.5 12 17.5" stroke="#39475B" stroke-linecap="round" stroke-linejoin="round"/>
<path id="Stroke 9" d="M9 0.5H15C19.694 0.5 23.5 4.306 23.5 9C23.5 13.694 19.694 17.5 15 17.5H9" stroke="#39475B" stroke-linecap="round" stroke-linejoin="round"/>
</g>
</svg>
