<svg width="24" height="24" viewBox="0 0 24 24" fill="none" xmlns="http://www.w3.org/2000/svg">
<g id="Icon">
<path id="Stroke 1" d="M3.47 19.7002C1.62 17.6602 0.5 14.9702 0.5 12.0002C0.5 5.65024 5.65 0.500244 12 0.500244C18.35 0.500244 23.5 5.65024 23.5 12.0002C23.5 14.9402 22.4 17.6102 20.59 19.6402" stroke="#39475B" stroke-linecap="round" stroke-linejoin="round"/>
<path id="Stroke 3" fill-rule="evenodd" clip-rule="evenodd" d="M19.9102 16.5698L20.5902 19.6398C18.4802 22.0098 15.4202 23.4998 12.0002 23.4998C8.61021 23.4998 5.57021 22.0298 3.47021 19.6998L4.28021 16.5698C4.55021 15.3498 5.71021 14.4998 7.05021 14.4998H9.59922C10.0972 14.4998 10.5002 14.0968 10.5002 13.5998V13.5468C10.5002 13.2428 10.3372 12.9738 10.0932 12.7938C8.42322 11.5538 7.94021 9.26676 7.94021 7.65976C7.94021 5.35976 8.94021 3.49976 11.9602 3.49976C14.9902 3.49976 16.0902 5.35976 16.0902 7.65976C16.0902 9.26676 15.5812 11.5538 13.9072 12.7938C13.6632 12.9738 13.5002 13.2428 13.5002 13.5468V13.5998C13.5002 14.0968 13.9032 14.4998 14.4002 14.4998H17.1402C18.4802 14.4998 19.6402 15.3498 19.9102 16.5698Z" stroke="#39475B" stroke-linecap="round" stroke-linejoin="round"/>
</g>
</svg>
