<svg width="24" height="24" viewBox="0 0 24 24" fill="none" xmlns="http://www.w3.org/2000/svg">
<g id="Icon">
<path id="Stroke 1" d="M2.5 4.5V1.5C2.5 0.95 2.95 0.5 3.5 0.5H22.5C23.05 0.5 23.5 0.95 23.5 1.5V22.5C23.5 23.05 23.05 23.5 22.5 23.5H3.5C2.95 23.5 2.5 23.05 2.5 22.5V19.5" stroke="#39475B"/>
<path id="Stroke 3" d="M2.5 16.5V7.5" stroke="#39475B"/>
<path id="Stroke 5" fill-rule="evenodd" clip-rule="evenodd" d="M4 7.5H1C0.724 7.5 0.5 7.276 0.5 7V5C0.5 4.724 0.724 4.5 1 4.5H4C4.276 4.5 4.5 4.724 4.5 5V7C4.5 7.276 4.276 7.5 4 7.5Z" stroke="#39475B"/>
<path id="Stroke 7" fill-rule="evenodd" clip-rule="evenodd" d="M4 19.5H1C0.724 19.5 0.5 19.276 0.5 19V17C0.5 16.724 0.724 16.5 1 16.5H4C4.276 16.5 4.5 16.724 4.5 17V19C4.5 19.276 4.276 19.5 4 19.5Z" stroke="#39475B"/>
<path id="Stroke 9" fill-rule="evenodd" clip-rule="evenodd" d="M15.5 12C15.5 13.381 14.381 14.5 13 14.5C11.619 14.5 10.5 13.381 10.5 12C10.5 10.619 11.619 9.5 13 9.5C14.381 9.5 15.5 10.619 15.5 12Z" stroke="#39475B"/>
<path id="Stroke 11" fill-rule="evenodd" clip-rule="evenodd" d="M13.5 7C13.5 7.276 13.276 7.5 13 7.5C12.724 7.5 12.5 7.276 12.5 7C12.5 6.724 12.724 6.5 13 6.5C13.276 6.5 13.5 6.724 13.5 7Z" stroke="#39475B"/>
<path id="Stroke 13" fill-rule="evenodd" clip-rule="evenodd" d="M13.5 17C13.5 17.276 13.276 17.5 13 17.5C12.724 17.5 12.5 17.276 12.5 17C12.5 16.724 12.724 16.5 13 16.5C13.276 16.5 13.5 16.724 13.5 17Z" stroke="#39475B"/>
<path id="Stroke 15" fill-rule="evenodd" clip-rule="evenodd" d="M18 12.5C17.724 12.5 17.5 12.276 17.5 12C17.5 11.724 17.724 11.5 18 11.5C18.276 11.5 18.5 11.724 18.5 12C18.5 12.276 18.276 12.5 18 12.5Z" stroke="#39475B"/>
<path id="Stroke 17" fill-rule="evenodd" clip-rule="evenodd" d="M8 12.5C7.724 12.5 7.5 12.276 7.5 12C7.5 11.724 7.724 11.5 8 11.5C8.276 11.5 8.5 11.724 8.5 12C8.5 12.276 8.276 12.5 8 12.5Z" stroke="#39475B"/>
<path id="Stroke 19" fill-rule="evenodd" clip-rule="evenodd" d="M16.8887 8.81786C16.6937 9.01286 16.3767 9.01286 16.1817 8.81786C15.9867 8.62286 15.9867 8.30586 16.1817 8.11086C16.3767 7.91586 16.6937 7.91586 16.8887 8.11086C17.0837 8.30586 17.0837 8.62286 16.8887 8.81786Z" stroke="#39475B"/>
<path id="Stroke 21" fill-rule="evenodd" clip-rule="evenodd" d="M9.81834 15.8891C9.62334 16.0841 9.30634 16.0841 9.11134 15.8891C8.91634 15.6941 8.91634 15.3771 9.11134 15.1821C9.30634 14.9871 9.62334 14.9871 9.81834 15.1821C10.0133 15.3771 10.0133 15.6941 9.81834 15.8891Z" stroke="#39475B"/>
<path id="Stroke 23" fill-rule="evenodd" clip-rule="evenodd" d="M16.1817 15.8891C15.9867 15.6941 15.9867 15.3771 16.1817 15.1821C16.3767 14.9871 16.6937 14.9871 16.8887 15.1821C17.0837 15.3771 17.0837 15.6941 16.8887 15.8891C16.6937 16.0841 16.3767 16.0841 16.1817 15.8891Z" stroke="#39475B"/>
<path id="Stroke 25" fill-rule="evenodd" clip-rule="evenodd" d="M9.11134 8.81786C8.91634 8.62286 8.91634 8.30586 9.11134 8.11086C9.30634 7.91586 9.62334 7.91586 9.81834 8.11086C10.0133 8.30586 10.0133 8.62286 9.81834 8.81786C9.62334 9.01286 9.30634 9.01286 9.11134 8.81786Z" stroke="#39475B"/>
<path id="Stroke 27" d="M23.5 14.5H20.06C19.04 17.41 16.26 19.5 13 19.5C8.86 19.5 5.5 16.14 5.5 12C5.5 7.86 8.86 4.5 13 4.5C16.26 4.5 19.04 6.59 20.06 9.5H23.5" stroke="#39475B"/>
</g>
</svg>
