<svg width="24" height="20" viewBox="0 0 24 20" fill="none" xmlns="http://www.w3.org/2000/svg">
<g id="Icon">
<path id="Stroke 1" fill-rule="evenodd" clip-rule="evenodd" d="M21.6072 1.47368H2.39261C1.88853 1.47368 1.47818 1.87536 1.47818 2.37084V14.0386C1.47818 14.5341 1.88853 14.9367 2.39261 14.9367H12.4581L19.7774 18.5263V14.9367H21.6072C22.1113 14.9367 22.5217 14.5341 22.5217 14.0386V2.37084C22.5217 1.87536 22.1113 1.47368 21.6072 1.47368Z" stroke="#39475B" stroke-linecap="round" stroke-linejoin="round"/>
<path id="Stroke 3" fill-rule="evenodd" clip-rule="evenodd" d="M6.96803 8.20521C6.96803 8.45342 6.76333 8.65426 6.50986 8.65426C6.25829 8.65426 6.05264 8.45342 6.05264 8.20521C6.05264 7.957 6.25829 7.75615 6.50986 7.75615C6.76333 7.75615 6.96803 7.957 6.96803 8.20521Z" stroke="#39475B" stroke-linecap="round" stroke-linejoin="round"/>
<path id="Stroke 5" fill-rule="evenodd" clip-rule="evenodd" d="M17.9475 8.20521C17.9475 8.45342 17.7418 8.65426 17.4893 8.65426C17.2368 8.65426 17.0321 8.45342 17.0321 8.20521C17.0321 7.957 17.2368 7.75615 17.4893 7.75615C17.7418 7.75615 17.9475 7.957 17.9475 8.20521Z" stroke="#39475B" stroke-linecap="round" stroke-linejoin="round"/>
<path id="Stroke 7" fill-rule="evenodd" clip-rule="evenodd" d="M12.4577 8.20521C12.4577 8.45342 12.252 8.65426 11.9995 8.65426C11.7479 8.65426 11.5423 8.45342 11.5423 8.20521C11.5423 7.957 11.7479 7.75615 11.9995 7.75615C12.252 7.75615 12.4577 7.957 12.4577 8.20521Z" stroke="#39475B" stroke-linecap="round" stroke-linejoin="round"/>
</g>
</svg>
