<svg width="24" height="23" viewBox="0 0 24 23" fill="none" xmlns="http://www.w3.org/2000/svg">
<g id="Icon">
<path id="Stroke 1" d="M9.14 18.5H3.5" stroke="#39475B" stroke-linecap="round" stroke-linejoin="round"/>
<path id="Stroke 2" d="M3.5 9.5H13.5" stroke="#39475B" stroke-linecap="round" stroke-linejoin="round"/>
<g id="Group 9">
<path id="Stroke 3" fill-rule="evenodd" clip-rule="evenodd" d="M5.5 0.5V5.5H0.5L5.5 0.5Z" stroke="#39475B" stroke-linecap="round" stroke-linejoin="round"/>
<path id="Stroke 5" d="M16.5 21.02V22.5H0.5V21.02" stroke="#39475B" stroke-linecap="round" stroke-linejoin="round"/>
<path id="Stroke 7" d="M0.5 21.0156V7.9846V7.9796V5.4996L5.5 0.499603H16.5V7.9796" stroke="#39475B" stroke-linecap="round" stroke-linejoin="round"/>
</g>
<path id="Stroke 10" d="M10.3585 15.5H3.50049" stroke="#39475B" stroke-linecap="round" stroke-linejoin="round"/>
<path id="Stroke 11" d="M11.9845 12.5H3.50049" stroke="#39475B" stroke-linecap="round" stroke-linejoin="round"/>
<g id="Group 18">
<path id="Stroke 12" fill-rule="evenodd" clip-rule="evenodd" d="M23.1958 11.4917L16.1868 18.4997L12.4998 14.8127L19.5078 7.8037C19.9138 7.3987 20.5718 7.3987 20.9778 7.8037L23.1958 10.0217C23.6018 10.4277 23.6018 11.0857 23.1958 11.4917Z" stroke="#39475B" stroke-linecap="round" stroke-linejoin="round"/>
<path id="Stroke 14" fill-rule="evenodd" clip-rule="evenodd" d="M12.5 14.813L10.344 20.656L16.187 18.5L12.5 14.813Z" stroke="#39475B" stroke-linecap="round" stroke-linejoin="round"/>
<path id="Stroke 16" d="M12.7797 19.7598L11.2397 18.2198" stroke="#39475B" stroke-linecap="round" stroke-linejoin="round"/>
</g>
</g>
</svg>
