<svg width="17" height="23" viewBox="0 0 17 23" fill="none" xmlns="http://www.w3.org/2000/svg">
<g id="Icon">
<path id="Stroke 1" fill-rule="evenodd" clip-rule="evenodd" d="M16.5 5.5V22.5H0.5V0.5H11.5L16.5 5.5Z" stroke="#39475B" stroke-linecap="round" stroke-linejoin="round"/>
<path id="Stroke 3" fill-rule="evenodd" clip-rule="evenodd" d="M16.5 5.5H11.5V0.5L16.5 5.5Z" stroke="#39475B" stroke-linecap="round" stroke-linejoin="round"/>
<path id="Stroke 5" fill-rule="evenodd" clip-rule="evenodd" d="M7.5 14.5V9.5C7.5 8.948 7.948 8.5 8.5 8.5C9.052 8.5 9.5 8.948 9.5 9.5V14.5C9.5 15.052 9.052 15.5 8.5 15.5C7.948 15.5 7.5 15.052 7.5 14.5Z" stroke="#39475B" stroke-linecap="round" stroke-linejoin="round"/>
<path id="Stroke 7" fill-rule="evenodd" clip-rule="evenodd" d="M9.5 18.5C9.5 19.052 9.052 19.5 8.5 19.5C7.948 19.5 7.5 19.052 7.5 18.5C7.5 17.948 7.948 17.5 8.5 17.5C9.052 17.5 9.5 17.948 9.5 18.5Z" stroke="#39475B" stroke-linecap="round" stroke-linejoin="round"/>
</g>
</svg>
