<svg width="24" height="24" viewBox="0 0 24 24" fill="none" xmlns="http://www.w3.org/2000/svg">
<g id="Icon">
<path id="Stroke 1" d="M19.4999 9.25V14V18.75V22.5C19.4999 23.053 19.0519 23.5 18.4999 23.5H14.7499H9.9999H5.2499H1.4999C0.947901 23.5 0.499901 23.053 0.499901 22.5V18.75V14V9.25V5.5C0.499901 4.947 0.947901 4.5 1.4999 4.5H5.2499H9.9999H14.7499" stroke="#39475B" stroke-linecap="round" stroke-linejoin="round"/>
<path id="Stroke 3" fill-rule="evenodd" clip-rule="evenodd" d="M14.0194 12.3271L10.4994 13.5001L11.6734 9.98012L16.1704 5.48312L20.6674 0.986122C20.9914 0.662122 21.4164 0.500122 21.8404 0.500122C22.2654 0.500122 22.6904 0.662122 23.0144 0.986122C23.3374 1.30912 23.4994 1.73412 23.4994 2.15912C23.4994 2.58412 23.3374 3.00912 23.0144 3.33212L18.5174 7.83012L14.0194 12.3271Z" stroke="#39475B" stroke-linecap="round" stroke-linejoin="round"/>
</g>
</svg>
