<svg width="13" height="24" viewBox="0 0 13 24" fill="none" xmlns="http://www.w3.org/2000/svg">
<g id="Icon">
<path id="Stroke 1" d="M12.5 13.5C12.5 16.813 9.813 19.5 6.5 19.5C3.187 19.5 0.5 16.813 0.5 13.5" stroke="#39475B" stroke-linecap="round" stroke-linejoin="round"/>
<path id="Stroke 3" fill-rule="evenodd" clip-rule="evenodd" d="M6.5 17.5V17.5C4.291 17.5 2.5 15.709 2.5 13.5V4.5C2.5 2.291 4.291 0.5 6.5 0.5C8.709 0.5 10.5 2.291 10.5 4.5V13.5C10.5 15.709 8.709 17.5 6.5 17.5Z" stroke="#39475B" stroke-linecap="round" stroke-linejoin="round"/>
<path id="Stroke 5" d="M6.5 19.5V23.5" stroke="#39475B" stroke-linecap="round" stroke-linejoin="round"/>
<path id="Stroke 7" d="M2.5 4.5H10.5" stroke="#39475B" stroke-linecap="round" stroke-linejoin="round"/>
<path id="Stroke 9" d="M2.5 7.5H10.5" stroke="#39475B" stroke-linecap="round" stroke-linejoin="round"/>
<path id="Stroke 11" d="M2.5 10.5H10.5" stroke="#39475B" stroke-linecap="round" stroke-linejoin="round"/>
<path id="Stroke 13" d="M2.5 13.5H10.5" stroke="#39475B" stroke-linecap="round" stroke-linejoin="round"/>
</g>
</svg>
