<svg width="20" height="25" viewBox="0 0 20 25" fill="none" xmlns="http://www.w3.org/2000/svg">
<g id="Notification">
<path id="Stroke 1" fill-rule="evenodd" clip-rule="evenodd" d="M17.349 20.7632H2.25762C1.56293 20.7632 1 20.2003 1 19.5056V13.1587C1 8.29593 4.94163 4.35539 9.80333 4.35539C14.665 4.35539 18.6067 8.29593 18.6067 13.1587V19.5056C18.6067 20.2003 18.0448 20.7632 17.349 20.7632Z" stroke="#39475B" stroke-linecap="round" stroke-linejoin="round"/>
<path id="Fill 3" fill-rule="evenodd" clip-rule="evenodd" d="M11.8825 2.5148C11.8825 3.90417 10.7567 5.03113 9.36729 5.03113C7.97901 5.03113 6.85205 3.90417 6.85205 2.5148C6.85205 1.12652 7.97901 -0.000434875 9.36729 -0.000434875C10.7567 -0.000434875 11.8825 1.12652 11.8825 2.5148Z" fill="#39475B"/>
<path id="Stroke 6" d="M11.5304 20.8104C11.6317 21.0619 11.6818 21.3515 11.6818 21.6412C11.6818 22.9227 10.6496 23.955 9.368 23.955C8.08425 23.955 7.0542 22.9227 7.0542 21.6412C7.0542 21.3515 7.10429 21.0619 7.20446 20.8104" stroke="#39475B" stroke-linecap="round" stroke-linejoin="round"/>
</g>
</svg>
