<svg width="23" height="23" viewBox="0 0 23 23" fill="none" xmlns="http://www.w3.org/2000/svg">
<path fill-rule="evenodd" clip-rule="evenodd" d="M22.5 11.5C22.5 17.575 17.575 22.5 11.5 22.5C5.425 22.5 0.5 17.575 0.5 11.5C0.5 5.425 5.425 0.5 11.5 0.5C17.575 0.5 22.5 5.425 22.5 11.5Z" stroke="#39475B" stroke-linecap="round" stroke-linejoin="round"/>
<path d="M8.5 12.5L6.5 11.5C6.5 12.19 6.64 12.848 6.893 13.446C7.146 14.044 7.512 14.583 7.965 15.035C8.417 15.488 8.956 15.854 9.554 16.107C10.152 16.36 10.81 16.5 11.5 16.5C12.19 16.5 12.848 16.36 13.446 16.107C14.045 15.854 14.583 15.488 15.035 15.035C15.488 14.583 15.854 14.044 16.107 13.446" stroke="#39475B" stroke-linecap="round" stroke-linejoin="round"/>
<path d="M14.5001 10.5L16.5001 11.5C16.5001 10.81 16.3601 10.152 16.1071 9.554C15.8541 8.956 15.4881 8.417 15.0351 7.965C14.5831 7.512 14.0451 7.146 13.4461 6.893C12.8481 6.64 12.1901 6.5 11.5001 6.5C10.8101 6.5 10.1521 6.64 9.55407 6.893C8.95607 7.146 8.41707 7.512 7.96507 7.965C7.51207 8.417 7.14607 8.956 6.89307 9.554" stroke="#39475B" stroke-linecap="round" stroke-linejoin="round"/>
</svg>
